# xmcd
#
# Track frame offsets:
# 150
# 14795
# 30603
# 42858
#
# Disc length: 815 seconds
#
#
# Revision: 0
# Processed by: cddbd v1.5.2PL0 Copyright (c) Steve Scherf et al.
# Submitted via: FreeRIP 2.943 
#
DISCID=2c032d04
DTITLE=Jamie Grace - Christmas Together e.p.
DYEAR=2011
DGENRE=Chorus
TTITLE0=Christmas Together
TTITLE1=O Come, O Come Emmanuel
TTITLE2=the Chipmunk song (Christmas don't be late)
TTITLE3=What Child is This? (w_ abandon-kansas)
EXTD=
EXTT0=
EXTT1=
EXTT2=
EXTT3=
PLAYORDER=
